<svg width="24" height="26" viewBox="0 0 24 26" fill="none" xmlns="http://www.w3.org/2000/svg">
<path d="M12.0001 0.519958C9.12184 0.519958 6.80012 2.84168 6.80012 5.71996V6.75996H2.68887L2.64012 7.21496L0.560117 25.415L0.495117 26H23.5051L23.4401 25.415L21.3601 7.21496L21.3114 6.75996H17.2001V5.71996C17.2001 2.84168 14.8784 0.519958 12.0001 0.519958ZM12.0001 1.55996C14.3218 1.55996 16.1601 3.39824 16.1601 5.71996V6.75996H7.84012V5.71996C7.84012 3.39824 9.6784 1.55996 12.0001 1.55996ZM3.63137 7.79996H6.80012V8.98621C6.48934 9.16699 6.28012 9.49605 6.28012 9.87996C6.28012 10.4548 6.74527 10.92 7.32012 10.92C7.89496 10.92 8.36012 10.4548 8.36012 9.87996C8.36012 9.49605 8.1509 9.16699 7.84012 8.98621V7.79996H16.1601V8.98621C15.8493 9.16699 15.6401 9.49605 15.6401 9.87996C15.6401 10.4548 16.1053 10.92 16.6801 10.92C17.255 10.92 17.7201 10.4548 17.7201 9.87996C17.7201 9.49605 17.5109 9.16699 17.2001 8.98621V7.79996H20.3689L22.3351 24.96H1.66512L3.63137 7.79996Z" fill="white"/>
</svg>
