<svg viewBox="0 0 12 19" fill="none" xmlns="http://www.w3.org/2000/svg">
<path d="M11.0432 0.276648L8.42661 0.272789C5.48696 0.272789 3.58723 2.06419 3.58723 4.83685V6.94119H0.956356C0.729018 6.94119 0.544922 7.11058 0.544922 7.31953V10.3685C0.544922 10.5774 0.729228 10.7466 0.956356 10.7466H3.58723V18.4401C3.58723 18.649 3.77132 18.8182 3.99866 18.8182H7.4312C7.65853 18.8182 7.84263 18.6488 7.84263 18.4401V10.7466H10.9187C11.1461 10.7466 11.3302 10.5774 11.3302 10.3685L11.3314 7.31953C11.3314 7.21921 11.288 7.12313 11.2109 7.05213C11.1339 6.98113 11.0289 6.94119 10.9198 6.94119H7.84263V5.15731C7.84263 4.29991 8.06493 3.86465 9.28013 3.86465L11.0428 3.86407C11.2699 3.86407 11.454 3.69468 11.454 3.48592V0.6548C11.454 0.446237 11.2701 0.277034 11.0432 0.276648Z" fill="currentColor"/>
</svg>
