<svg  viewBox="0 0 18 18" fill="none" xmlns="http://www.w3.org/2000/svg">
<path d="M12.9101 0.272728H5.08918C2.43324 0.272728 0.272461 2.43361 0.272461 5.08955V12.9104C0.272461 15.5665 2.43324 17.7273 5.08918 17.7273H12.9101C15.5662 17.7273 17.727 15.5664 17.727 12.9104V5.08955C17.7271 2.43361 15.5662 0.272728 12.9101 0.272728ZM16.1785 12.9104C16.1785 14.7126 14.7123 16.1786 12.9102 16.1786H5.08918C3.28717 16.1787 1.82111 14.7126 1.82111 12.9104V5.08955C1.82111 3.28754 3.28717 1.82138 5.08918 1.82138H12.9101C14.7122 1.82138 16.1784 3.28754 16.1784 5.08955L16.1785 12.9104Z" fill="currentColor"/>
<path d="M8.99973 4.50266C6.51971 4.50266 4.50213 6.52025 4.50213 9.00026C4.50213 11.4802 6.51971 13.4976 8.99973 13.4976C11.4797 13.4976 13.4973 11.4802 13.4973 9.00026C13.4973 6.52025 11.4797 4.50266 8.99973 4.50266ZM8.99973 11.9489C7.37374 11.9489 6.05078 10.6261 6.05078 9.00015C6.05078 7.37407 7.37364 6.05121 8.99973 6.05121C10.6258 6.05121 11.9487 7.37407 11.9487 9.00015C11.9487 10.6261 10.6257 11.9489 8.99973 11.9489Z" fill="currentColor"/>
<path d="M13.6859 3.18963C13.3876 3.18963 13.0944 3.31043 12.8837 3.52208C12.672 3.73269 12.5502 4.0259 12.5502 4.32531C12.5502 4.62379 12.6721 4.91689 12.8837 5.12854C13.0943 5.33916 13.3876 5.46099 13.6859 5.46099C13.9853 5.46099 14.2775 5.33916 14.4892 5.12854C14.7008 4.91689 14.8216 4.62368 14.8216 4.32531C14.8216 4.0259 14.7008 3.73269 14.4892 3.52208C14.2785 3.31043 13.9853 3.18963 13.6859 3.18963Z" fill="currentColor"/>
</svg>
