<svg viewBox="0 0 20 20" fill="none" xmlns="http://www.w3.org/2000/svg">
<path d="M0.32176 3.86786C0.340666 4.20989 0.373323 5.28239 1.13817 6.9152C1.90129 8.54802 3.38629 10.7893 6.30129 13.7043C9.21629 16.6193 11.4593 18.106 13.0921 18.8691C14.7232 19.6322 15.7957 19.6666 16.1377 19.6855L16.16 19.6855C16.5554 19.6855 16.8252 19.4861 17.1277 19.2558C17.4285 19.0255 17.7361 18.7316 18.0318 18.424C18.623 17.8069 19.1524 17.1469 19.3672 16.8444C19.8657 16.1483 19.7488 15.3319 19.2263 14.9607C18.855 14.6943 15.7871 12.6747 15.2869 12.3722C15.2869 12.3722 15.2869 12.374 15.2869 12.3722C14.8211 12.0646 14.2677 12.1883 13.7538 12.4685C13.3671 12.6799 12.3324 13.2746 12.0316 13.4482C11.8013 13.2969 10.9436 12.7125 9.11832 10.8872L9.1166 10.8855L9.11488 10.8855C7.25176 9.05333 6.69489 8.19911 6.55567 7.97739C6.7241 7.68348 7.3102 6.66598 7.5302 6.26552C7.82238 5.77739 7.91692 5.21364 7.64879 4.74442L7.64707 4.73927L7.64364 4.73583C7.5027 4.50036 6.93379 3.62551 6.34426 2.72833C6.05035 2.27973 5.75645 1.83458 5.5227 1.48051C5.28895 1.13161 5.13254 0.896141 5.04489 0.779264C4.67364 0.258484 3.85895 0.139891 3.16113 0.638328C2.86379 0.851452 2.19176 1.37911 1.56957 1.97208C1.25848 2.2677 0.962854 2.57708 0.732541 2.8813C0.503947 3.1838 0.301135 3.46223 0.32176 3.86786ZM1.20004 3.82317C1.20176 3.86442 1.25332 3.6513 1.43379 3.41239C1.61598 3.17177 1.88582 2.88645 2.17629 2.60973C2.75723 2.0563 3.4327 1.52692 3.67332 1.35505C4.05488 1.08176 4.31613 1.27255 4.32817 1.28973L4.33332 1.29489L4.33504 1.30005C4.36598 1.33786 4.55504 1.6163 4.78879 1.96864C5.02254 2.31927 5.31645 2.7627 5.60864 3.2113C6.19301 4.10161 6.79114 5.02458 6.88567 5.17926L6.88567 5.18098C6.92348 5.24973 6.94239 5.53161 6.77395 5.81348L6.76879 5.82036L6.76535 5.82895C6.54535 6.23114 5.65332 7.78489 5.65332 7.78489L5.52785 8.00317L5.65332 8.22145C5.65332 8.22145 6.3202 9.3713 8.49614 11.5094C8.49614 11.5094 8.49785 11.5094 8.49785 11.5111C8.49785 11.5111 8.49785 11.5111 8.49957 11.5111C10.6343 13.6475 11.7738 14.3471 11.7738 14.3471L11.9955 14.4811L12.2207 14.3522C12.2207 14.3522 13.7744 13.4602 14.1766 13.2419C14.51 13.0597 14.8039 13.1079 14.7988 13.1061L14.8074 13.1113L14.8177 13.1165C15.1099 13.2918 18.5491 15.5588 18.7158 15.6774C18.733 15.6894 18.9238 15.9524 18.6505 16.3322C18.4821 16.5694 17.951 17.238 17.3975 17.8155C17.1191 18.1025 16.8355 18.3724 16.5932 18.5563C16.3525 18.7385 16.136 18.8021 16.1618 18.8021C15.7682 18.7832 14.9621 18.7729 13.465 18.0716C11.9491 17.3635 9.78348 15.9421 6.92348 13.0821C4.06348 10.2221 2.64207 8.05817 1.93395 6.54223C1.22582 5.0263 1.22067 4.21333 1.20004 3.82317Z" fill="currentColor"/>
</svg>
